<svg width="423" height="362" viewBox="0 0 423 362" fill="none" xmlns="http://www.w3.org/2000/svg">
<path d="M121.626 273.818L157.529 243.779L226.035 187.076L225.671 185.947L159.361 216.366L88.2903 157.034C87.9484 156.767 87.6718 156.425 87.4816 156.035C87.2914 155.645 87.1926 155.216 87.1926 154.782C87.1926 154.348 87.2914 153.92 87.4816 153.53C87.6718 153.14 87.9484 152.798 88.2903 152.531C94.5161 148.024 109.171 137.886 119.429 137.508C150.568 136.005 244.719 137.508 271.461 124.366C295.274 112.724 341.068 84.5599 366.348 68.7889C302.235 -11.1949 187.203 -23.2111 108.439 42.1276C32.971 104.463 18.6839 215.615 72.9032 295.979L0 356.437C4.76129 362.444 13.5548 363.57 19.7806 358.689L81.329 307.621L121.626 273.818ZM422.032 52.6405L95.6129 323.011C98.9382 326.363 102.359 329.618 105.871 332.773L207.352 256.17L253.513 294.47C254.61 295.599 256.442 295.599 257.906 294.47L268.165 286.211C273.067 281.928 276.629 276.321 278.423 270.063C303.7 181.818 348.761 126.618 419.1 63.1534C422.032 59.3986 420.565 61.6534 419.1 63.1534" fill="white"/>
</svg>
